# Blender v2.79 (sub 0) OBJ File: 'pine_tree.blend'
# www.blender.org
mtllib pine_tree_fan.mtl
o pine_tree_fan_LOD_3000_CreateFan
v -4.936372 -0.087036 -0.066548
v 0.069694 -0.087036 -0.062073
v 0.069694 13.645010 -0.062070
v -4.936372 13.645010 -0.066546
v 5.075761 -0.087036 -0.066548
v 0.069694 -0.087036 -0.071024
v 0.069694 13.645010 -0.071021
v 5.075761 13.645010 -0.066546
v 0.069694 -0.087037 4.939519
v 0.074170 -0.087036 -0.066548
v 0.074170 13.645010 -0.066546
v 0.069694 13.645009 4.939522
v 0.069694 -0.087035 -5.072616
v 0.065219 -0.087036 -0.066548
v 0.065219 13.645010 -0.066546
v 0.069694 13.645011 -5.072613
vt 0.141123 0.000857
vt 0.500000 0.000857
vt 0.500000 0.984887
vt 0.141123 0.984887
vt 0.858877 0.000857
vt 0.500000 0.000857
vt 0.500000 0.984887
vt 0.858877 0.984887
vt 0.141123 0.000857
vt 0.500000 0.000857
vt 0.500000 0.984887
vt 0.141123 0.984887
vt 0.858877 0.000857
vt 0.500000 0.000857
vt 0.500000 0.984887
vt 0.858877 0.984887
vn -0.5976 0.3586 0.7172
vn -0.5976 0.3585 0.7172
vn 0.5976 0.3586 -0.7172
vn 0.5976 0.3585 -0.7172
vn 0.5976 0.3586 0.7172
vn 0.5976 0.3585 0.7172
vn -0.5976 0.3586 -0.7172
vn -0.5976 0.3585 -0.7172
vn 0.7172 0.3586 0.5976
vn 0.7172 0.3585 0.5976
vn -0.7172 0.3586 -0.5976
vn -0.7172 0.3585 -0.5976
vn 0.7172 0.3586 -0.5976
vn 0.7172 0.3585 -0.5976
vn -0.7172 0.3586 0.5976
vn -0.7172 0.3585 0.5976
usemtl CreateFan
s 1
f 1/1/1 2/2/1 3/3/1 4/4/2
f 5/5/3 6/6/3 7/7/3 8/8/4
f 5/5/5 8/8/6 3/3/5 2/2/5
f 1/1/7 4/4/8 7/7/7 6/6/7
f 9/9/9 10/10/9 11/11/9 12/12/10
f 13/13/11 14/14/11 15/15/11 16/16/12
f 13/13/13 16/16/14 11/11/13 10/10/13
f 9/9/15 12/12/16 15/15/15 14/14/15
