# This file uses centimeters as units for non-parametric coordinates.

mtllib tube.mtl
g default
v 0.867483 2.709125 2.154918
v 0.431540 2.709125 2.154918
v 0.213568 2.331588 2.154918
v 0.431539 1.954049 2.154918
v 0.867483 1.954049 2.154918
v 1.085454 2.331587 2.154918
v 0.850891 2.680387 2.321746
v 0.448132 2.680387 2.321746
v 0.246752 2.331587 2.321746
v 0.448132 1.982788 2.321746
v 0.850891 1.982788 2.321746
v 1.052270 2.331587 2.321746
v 0.803640 2.598547 2.463176
v 0.495382 2.598547 2.463176
v 0.341253 2.331587 2.463176
v 0.495382 2.064628 2.463176
v 0.803640 2.064628 2.463176
v 0.957770 2.331587 2.463176
v 0.732925 2.476065 2.557677
v 0.566097 2.476065 2.557677
v 0.482683 2.331587 2.557677
v 0.566097 2.187110 2.557677
v 0.732925 2.187110 2.557677
v 0.816339 2.331587 2.557677
v 0.649511 2.331587 2.590861
v 0.726818 2.465487 -0.824500
v 0.572204 2.465487 -0.824500
v 0.494897 2.331587 -0.824500
v 0.572204 2.197688 -0.824500
v 0.726818 2.197688 -0.824500
v 0.804126 2.331587 -0.824500
v 0.443081 2.331587 -0.395104
v 0.546296 2.152813 -0.395104
v 0.752726 2.152813 -0.395104
v 0.855941 2.331587 -0.395104
v 0.752726 2.510361 -0.395104
v 0.546296 2.510361 -0.395104
v 0.357855 2.331587 0.314119
v 0.503683 2.079006 0.314119
v 0.795339 2.079006 0.314119
v 0.941167 2.331587 0.314119
v 0.795339 2.584169 0.314119
v 0.503683 2.584169 0.314119
vt 0.000000 0.500000
vt 0.166667 0.500000
vt 0.333333 0.500000
vt 0.500000 0.500000
vt 0.666667 0.500000
vt 0.833333 0.500000
vt 1.000000 0.500000
vt 0.000000 0.625000
vt 0.166667 0.625000
vt 0.333333 0.625000
vt 0.500000 0.625000
vt 0.666667 0.625000
vt 0.833333 0.625000
vt 1.000000 0.625000
vt 0.000000 0.750000
vt 0.166667 0.750000
vt 0.333333 0.750000
vt 0.500000 0.750000
vt 0.666667 0.750000
vt 0.833333 0.750000
vt 1.000000 0.750000
vt 0.000000 0.875000
vt 0.166667 0.875000
vt 0.333333 0.875000
vt 0.500000 0.875000
vt 0.666667 0.875000
vt 0.833333 0.875000
vt 1.000000 0.875000
vt 0.083333 1.000000
vt 0.250000 1.000000
vt 0.416667 1.000000
vt 0.583333 1.000000
vt 0.750000 1.000000
vt 0.916667 1.000000
vt 0.000000 0.000000
vt 1.000000 0.000000
vt 1.000000 1.000000
vt 0.000000 1.000000
vt 0.000000 0.000000
vt 1.000000 0.000000
vt 1.000000 1.000000
vt 0.000000 1.000000
vt 0.000000 0.000000
vt 1.000000 0.000000
vt 1.000000 1.000000
vt 0.000000 1.000000
vt 0.000000 0.000000
vt 1.000000 0.000000
vt 1.000000 1.000000
vt 0.000000 1.000000
vt 0.000000 0.000000
vt 1.000000 0.000000
vt 1.000000 1.000000
vt 0.000000 1.000000
vt 0.000000 0.000000
vt 1.000000 0.000000
vt 1.000000 1.000000
vt 0.000000 1.000000
vt 1.000000 0.855879
vt 0.000000 0.855879
vt 1.000000 0.855879
vt 0.000000 0.855879
vt 1.000000 0.855879
vt 0.000000 0.855879
vt 1.000000 0.855879
vt 0.000000 0.855879
vt 1.000000 0.855879
vt 0.000000 0.855879
vt 1.000000 0.855879
vt 0.000000 0.855879
vt 1.000000 0.617838
vt 0.000000 0.617838
vt 1.000000 0.617838
vt 0.000000 0.617838
vt 1.000000 0.617838
vt 0.000000 0.617838
vt 1.000000 0.617838
vt 0.000000 0.617838
vt 1.000000 0.617838
vt 0.000000 0.617838
vt 1.000000 0.617838
vt 0.000000 0.617838
vn 0.499298 0.864808 -0.052992
vn -0.499297 0.864809 -0.052992
vn -0.469467 0.813142 0.344092
vn 0.469468 0.813142 0.344092
vn -0.998595 0.000000 -0.052992
vn -0.938936 -0.000000 0.344092
vn -0.499298 -0.864808 -0.052992
vn -0.469468 -0.813142 0.344092
vn 0.499298 -0.864809 -0.052992
vn 0.469468 -0.813142 0.344092
vn 0.998595 -0.000000 -0.052992
vn 0.938936 -0.000000 0.344091
vn -0.381534 0.660837 0.646317
vn 0.381534 0.660837 0.646317
vn -0.763069 0.000000 0.646317
vn -0.381534 -0.660837 0.646317
vn 0.381534 -0.660837 0.646317
vn 0.763069 -0.000000 0.646317
vn -0.252087 0.436627 0.863602
vn 0.252087 0.436627 0.863602
vn -0.504174 0.000000 0.863602
vn -0.252087 -0.436627 0.863602
vn 0.252087 -0.436627 0.863602
vn 0.504174 0.000000 0.863602
vn 0.000000 0.000000 1.000000
vn 0.498133 0.862791 -0.086351
vn -0.498132 0.862791 -0.086351
vn -0.996265 0.000000 -0.086351
vn -0.498133 -0.862790 -0.086351
vn 0.498132 -0.862791 -0.086351
vn 0.996265 -0.000000 -0.086351
vn 0.000000 -0.000000 -1.000000
vn 0.000000 -0.000000 -1.000000
vn 0.000000 -0.000000 -1.000000
vn 0.000000 -0.000000 -1.000000
vn 0.000000 -0.000000 -1.000000
vn 0.000000 -0.000000 -1.000000
vn -0.496420 -0.859825 -0.119452
vn -0.992840 0.000000 -0.119452
vn -0.992798 0.000000 -0.119803
vn -0.496399 -0.859788 -0.119803
vn 0.496420 -0.859825 -0.119452
vn 0.496398 -0.859788 -0.119803
vn 0.992840 -0.000000 -0.119452
vn 0.992798 -0.000000 -0.119803
vn 0.496420 0.859825 -0.119452
vn 0.496399 0.859788 -0.119803
vn -0.496420 0.859825 -0.119452
vn -0.496398 0.859788 -0.119803
s 1
g pSphere1
usemtl initialShadingGroup
f 1/1/1 2/2/2 8/9/3 7/8/4
f 2/2/2 3/3/5 9/10/6 8/9/3
f 3/3/5 4/4/7 10/11/8 9/10/6
f 4/4/7 5/5/9 11/12/10 10/11/8
f 5/5/9 6/6/11 12/13/12 11/12/10
f 6/6/11 1/7/1 7/14/4 12/13/12
f 7/8/4 8/9/3 14/16/13 13/15/14
f 8/9/3 9/10/6 15/17/15 14/16/13
f 9/10/6 10/11/8 16/18/16 15/17/15
f 10/11/8 11/12/10 17/19/17 16/18/16
f 11/12/10 12/13/12 18/20/18 17/19/17
f 12/13/12 7/14/4 13/21/14 18/20/18
f 13/15/14 14/16/13 20/23/19 19/22/20
f 14/16/13 15/17/15 21/24/21 20/23/19
f 15/17/15 16/18/16 22/25/22 21/24/21
f 16/18/16 17/19/17 23/26/23 22/25/22
f 17/19/17 18/20/18 24/27/24 23/26/23
f 18/20/18 13/21/14 19/28/20 24/27/24
f 19/22/20 20/23/19 25/29/25
f 20/23/19 21/24/21 25/30/25
f 21/24/21 22/25/22 25/31/25
f 22/25/22 23/26/23 25/32/25
f 23/26/23 24/27/24 25/33/25
f 24/27/24 19/28/20 25/34/25
f 2/35/2 1/36/1 42/79/26 43/82/27
f 3/39/5 2/40/2 43/81/27 38/72/28
f 4/43/7 3/44/5 38/71/28 39/74/29
f 5/47/9 4/48/7 39/73/29 40/76/30
f 6/51/11 5/52/9 40/75/30 41/78/31
f 1/55/1 6/56/11 41/77/31 42/80/26
s off
f 27/38/32 26/58/33 31/54/34 30/50/35 29/46/36 28/42/37
s 1
f 33/62/38 32/59/39 28/45/40 29/46/41
f 34/64/42 33/61/38 29/49/41 30/50/43
f 35/66/44 34/63/42 30/53/43 31/54/45
f 36/68/46 35/65/44 31/57/45 26/58/47
f 37/70/48 36/67/46 26/37/47 27/38/49
f 32/60/39 37/69/48 27/41/49 28/42/40
f 39/74/29 38/71/28 32/59/39 33/62/38
f 40/76/30 39/73/29 33/61/38 34/64/42
f 41/78/31 40/75/30 34/63/42 35/66/44
f 42/80/26 41/77/31 35/65/44 36/68/46
f 43/82/27 42/79/26 36/67/46 37/70/48
f 38/72/28 43/81/27 37/69/48 32/60/39
