# This file uses centimeters as units for non-parametric coordinates.

mtllib Arbol seco.mtl
g default
v -149.370438 370.093048 103.691605
v -152.256790 370.093048 104.629440
v -152.256790 370.093048 107.664322
v -149.370438 370.093048 108.602158
v -147.586578 370.093048 106.146881
v -149.652725 376.974701 104.665779
v -151.580322 377.006561 105.102188
v -151.455505 377.000305 107.107796
v -149.632996 376.977325 107.655579
v -148.783890 376.920715 106.150291
v -150.789825 383.123444 104.799232
v -152.146591 383.136017 105.381302
v -152.117096 383.138794 106.737114
v -150.764038 383.128235 107.476158
v -149.720413 383.128357 106.107849
v -150.838806 392.357086 104.681564
v -151.940536 393.612366 105.469696
v -151.200165 392.385925 106.146881
v -152.174973 392.138855 107.342567
v -150.646454 391.555176 107.529427
v -149.799515 392.514404 105.840073
v -149.574768 400.637909 103.807938
v -150.305588 400.599518 104.055122
v -149.671509 400.611847 104.797531
v -148.988968 400.620667 104.671059
v -149.092316 408.173523 103.684097
v -149.708344 408.173523 104.019333
v -149.262573 408.173523 104.561760
v -148.711594 408.173523 104.561760
v -151.740692 397.715332 109.961067
v -151.684036 397.578125 110.778336
v -151.082642 397.511292 110.798363
v -150.843445 397.389587 111.140121
v -150.834503 403.090118 112.868179
v -150.834503 403.090118 113.618927
v -150.317841 403.090118 113.243553
v -150.120499 403.090118 113.850922
v -149.887680 390.185211 106.047707
v -150.801346 389.944794 107.397926
v -152.183899 390.019806 106.839294
v -152.315231 390.019165 105.270279
v -150.684036 390.062195 104.803909
v -149.907684 387.742584 106.239120
v -150.758255 387.793915 107.395096
v -152.168152 387.809143 106.907547
v -152.348831 387.671295 105.394073
v -150.707138 387.785370 104.629486
v -152.231155 388.110382 104.458313
v -150.966919 388.110382 104.047539
v -152.231155 389.692047 104.458313
v -150.966919 389.692047 104.047539
v -153.366089 389.738159 99.545265
v -152.726746 389.791718 99.299232
v -153.208801 390.561035 99.641006
v -152.738861 390.526611 99.379410
v -156.324722 391.928101 95.403030
v -155.999268 391.928101 95.297287
v -156.324722 392.335266 95.403030
v -155.999268 392.335266 95.297287
v -152.153107 393.825684 108.178604
v -150.864441 393.283020 108.572815
v -151.232864 393.761383 107.444908
v -151.744949 394.127838 107.253929
v -152.449127 388.808960 102.797882
v -152.397705 389.796082 102.747795
v -151.622711 389.924530 102.468018
v -151.543655 388.658356 102.413727
vt 0.499721 0.207905
vt 0.553606 0.198263
vt 0.570945 0.327630
vt 0.528390 0.331126
vt 0.607862 0.193713
vt 0.614097 0.324290
vt 0.662162 0.193260
vt 0.656843 0.321180
vt 0.717202 0.197609
vt 0.698875 0.322789
vt 0.771978 0.207962
vt 0.739674 0.331620
vt 0.611738 0.908437
vt 0.622387 0.902038
vt 0.633888 0.906248
vt 0.402111 0.899735
vt 0.421937 0.910550
vt 0.392184 0.915695
vt 0.437635 0.900748
vt 0.451559 0.902430
vt 0.650743 0.578884
vt 0.667482 0.605662
vt 0.644005 0.595340
vt 0.642634 0.902196
vt 0.657723 0.910673
vt 0.581991 0.441140
vt 0.547832 0.441532
vt 0.616425 0.439267
vt 0.651628 0.436890
vt 0.687341 0.438234
vt 0.722163 0.443709
vt 0.582312 0.524540
vt 0.548318 0.526237
vt 0.616230 0.520952
vt 0.650992 0.521244
vt 0.685320 0.525406
vt 0.719261 0.530116
vt 0.571578 0.623313
vt 0.603834 0.611106
vt 0.614867 0.769619
vt 0.593488 0.775440
vt 0.636136 0.610427
vt 0.635272 0.769767
vt 0.701019 0.622510
vt 0.678391 0.775531
vt 0.653020 0.771867
vt 0.312335 0.588078
vt 0.355248 0.608531
vt 0.387580 0.743236
vt 0.357298 0.732290
vt 0.283761 0.616927
vt 0.336719 0.750837
vt 0.408964 0.596301
vt 0.418814 0.745303
vt 0.454864 0.588244
vt 0.441726 0.731447
vt 0.649978 0.558512
vt 0.680848 0.568871
vt 0.615998 0.558230
vt 0.623180 0.595662
vt 0.585405 0.567946
vt 0.553978 0.582042
vt 0.712793 0.576329
vt 0.418220 0.450515
vt 0.413086 0.443857
vt 0.416496 0.442372
vt 0.419263 0.442102
vt 0.212861 0.144817
vt 0.248963 0.100018
vt 0.264683 0.124565
vt 0.231502 0.156381
vt 0.313002 0.082044
vt 0.318322 0.109304
vt 0.361282 0.083295
vt 0.365977 0.105289
vt 0.430098 0.074695
vt 0.419959 0.096155
vt 0.260761 0.204636
vt 0.291196 0.179992
vt 0.342549 0.287345
vt 0.317432 0.298098
vt 0.337777 0.168540
vt 0.375457 0.283270
vt 0.378092 0.162972
vt 0.401558 0.274696
vt 0.424226 0.153467
vt 0.432490 0.264471
vt 0.343091 0.557882
vt 0.405261 0.540276
vt 0.459804 0.534400
vt 0.263849 0.566577
vt 0.295429 0.533854
vn -0.308099 0.077093 -0.948226
vn -0.308099 0.077093 -0.948226
vn -0.308099 0.077093 -0.948226
vn -0.308099 0.077093 -0.948226
vn -0.308099 0.077093 -0.948226
vn -0.996540 0.083120 0.000000
vn -0.996540 0.083120 0.000000
vn -0.308099 0.077093 -0.948226
vn -0.996540 0.083120 0.000000
vn -0.308099 0.077093 0.948226
vn -0.308099 0.077093 0.948226
vn -0.996540 0.083120 0.000000
vn -0.308099 0.077093 0.948226
vn 0.807182 0.067325 0.586451
vn 0.807182 0.067325 0.586451
vn -0.308099 0.077093 0.948226
vn 0.807182 0.067325 0.586451
vn -0.308099 0.077093 -0.948226
vn -0.308099 0.077093 -0.948226
vn 0.807182 0.067325 0.586451
vn 0.000000 1.000000 0.000000
vn 0.000000 1.000000 0.000000
vn 0.000000 1.000000 0.000000
vn 0.000000 1.000000 0.000000
vn 0.000000 1.000000 -0.000039
vn 0.000000 1.000000 -0.000039
vn 0.000000 1.000000 -0.000039
vn 0.000000 1.000000 -0.000079
vn 0.000000 1.000000 -0.000039
vn 0.295539 0.876226 0.380637
vn 0.295539 0.876226 0.380637
vn 0.295539 0.876226 0.380637
vn 0.000000 1.000000 0.000000
vn 0.000000 1.000000 0.000000
vn 0.000000 1.000000 0.000000
vn -0.308099 0.077093 -0.948226
vn -0.308099 0.077093 -0.948226
vn -0.308952 -0.020425 -0.950858
vn -0.308952 -0.020425 -0.950858
vn -0.308099 0.077093 -0.948226
vn -0.996540 0.083120 0.000000
vn -0.990229 -0.139448 0.000000
vn -0.308952 -0.020425 -0.950858
vn -0.996540 0.083120 0.000000
vn -0.308099 0.077093 0.948226
vn -0.309011 -0.003782 0.951051
vn -0.990229 -0.139448 0.000000
vn -0.308099 0.077093 0.948226
vn 0.807182 0.067325 0.586451
vn 0.793104 0.197348 0.576229
vn -0.309011 -0.003782 0.951051
vn 0.807182 0.067325 0.586451
vn -0.308099 0.077093 -0.948226
vn -0.308952 -0.020425 -0.950858
vn 0.793104 0.197348 0.576229
vn -0.308952 -0.020425 -0.950858
vn -0.308952 -0.020425 -0.950858
vn -0.308985 0.014698 -0.950953
vn -0.308985 0.014698 -0.950953
vn -0.308952 -0.020425 -0.950858
vn -0.990229 -0.139448 0.000000
vn -0.999970 0.007728 0.000000
vn -0.308985 0.014698 -0.950953
vn -0.990229 -0.139448 0.000000
vn -0.309011 -0.003782 0.951051
vn -0.309014 -0.005091 0.951044
vn -0.999970 0.007728 0.000000
vn -0.309011 -0.003782 0.951051
vn 0.793104 0.197348 0.576229
vn 0.808971 -0.010908 0.587747
vn -0.309014 -0.005091 0.951044
vn 0.793104 0.197348 0.576229
vn -0.308952 -0.020425 -0.950858
vn -0.308985 0.014698 -0.950953
vn 0.808971 -0.010908 0.587747
vn -0.340639 -0.064634 -0.937970
vn -0.340639 -0.064634 -0.937970
vn -0.340639 -0.064634 -0.937970
vn -0.340639 -0.064634 -0.937970
vn -0.340639 -0.064634 -0.937970
vn 0.295539 0.876226 0.380637
vn -0.609290 0.256606 0.750279
vn -0.340639 -0.064634 -0.937970
vn 0.295539 0.876226 0.380637
vn -0.340639 -0.064634 -0.937970
vn -0.340639 -0.064634 -0.937970
vn 0.818502 -0.198429 -0.539148
vn 0.295539 0.876226 0.380637
vn 0.295539 0.876226 0.380637
vn 0.818502 -0.198429 -0.539148
vn -0.609290 0.256606 0.750279
vn -0.340639 -0.064634 -0.937970
vn -0.340639 -0.064634 -0.937970
vn 0.000000 1.000000 0.000000
vn 0.000000 1.000000 0.000000
vn -0.340639 -0.064634 -0.937970
vn -0.609290 0.256606 0.750279
vn 0.000000 1.000000 0.000000
vn 0.000000 1.000000 0.000000
vn 0.818502 -0.198429 -0.539148
vn -0.340639 -0.064634 -0.937970
vn 0.000000 1.000000 0.000000
vn 0.000000 1.000000 0.000000
vn -0.609290 0.256606 0.750279
vn 0.818502 -0.198429 -0.539148
vn 0.000000 1.000000 0.000000
vn 0.000000 1.000000 0.000000
vn -0.317599 0.696230 -0.643735
vn -0.856308 -0.221401 0.466602
vn -0.992200 0.124657 0.000000
vn -0.992200 0.124657 0.000000
vn 0.869891 0.336397 -0.360730
vn -0.317599 0.696230 -0.643735
vn -0.992200 0.124657 0.000000
vn 0.476844 0.584697 -0.656315
vn -0.856308 -0.221401 0.466602
vn 0.533995 -0.387079 0.751678
vn -0.398431 -0.536969 0.743584
vn -0.992200 0.124657 0.000000
vn 0.533995 -0.387079 0.751678
vn 0.869891 0.336397 -0.360730
vn 0.476844 0.584697 -0.656315
vn -0.398431 -0.536969 0.743584
vn -0.992200 0.124657 0.000000
vn -0.992200 0.124657 0.000000
vn 0.000000 1.000000 -0.000039
vn 0.000000 1.000000 0.000000
vn 0.476844 0.584697 -0.656315
vn -0.992200 0.124657 0.000000
vn 0.000000 1.000000 0.000000
vn 0.000000 1.000000 -0.000039
vn -0.992200 0.124657 0.000000
vn -0.398431 -0.536969 0.743584
vn 0.000000 1.000000 -0.000079
vn 0.000000 1.000000 -0.000039
vn -0.398431 -0.536969 0.743584
vn 0.476844 0.584697 -0.656315
vn 0.000000 1.000000 -0.000039
vn 0.000000 1.000000 -0.000079
vn 0.817431 -0.022945 0.575569
vn 0.817358 -0.022738 0.575681
vn 0.295539 0.876226 0.380637
vn 0.295539 0.876226 0.380637
vn -0.307141 0.001564 0.951663
vn 0.817431 -0.022945 0.575569
vn 0.295539 0.876226 0.380637
vn -0.305068 0.003288 0.952325
vn -1.000000 0.000000 0.000000
vn -0.307141 0.001564 0.951663
vn -0.305068 0.003288 0.952325
vn -0.340639 -0.064634 -0.937970
vn -0.309017 0.000000 -0.951057
vn -1.000000 0.000000 0.000000
vn -0.340639 -0.064634 -0.937970
vn -0.340639 -0.064634 -0.937970
vn 0.817358 -0.022738 0.575681
vn -0.309017 0.000000 -0.951057
vn -0.340639 -0.064634 -0.937970
vn 0.295539 0.876226 0.380637
vn -0.309014 -0.005091 0.951044
vn 0.808971 -0.010908 0.587747
vn 0.817358 -0.022738 0.575681
vn 0.817431 -0.022945 0.575569
vn -0.999970 0.007728 0.000000
vn -0.309014 -0.005091 0.951044
vn 0.817431 -0.022945 0.575569
vn -0.307141 0.001564 0.951663
vn -0.308985 0.014698 -0.950953
vn -0.999970 0.007728 0.000000
vn -0.307141 0.001564 0.951663
vn -1.000000 0.000000 0.000000
vn -0.309015 0.000000 -0.951057
vn -0.309015 0.000000 -0.951057
vn -0.309015 0.000000 -0.951057
vn -0.309015 0.000000 -0.951057
vn 0.808971 -0.010908 0.587747
vn -0.308985 0.014698 -0.950953
vn -0.309017 0.000000 -0.951057
vn 0.817358 -0.022738 0.575681
vn -0.308985 0.014698 -0.950953
vn -0.308985 0.014698 -0.950953
vn -0.141012 -0.889804 -0.434009
vn -0.141012 -0.889804 -0.434009
vn -0.308985 0.014698 -0.950953
vn -1.000000 0.000000 0.000000
vn -0.945024 0.000000 -0.327000
vn -0.141012 -0.889804 -0.434009
vn -1.000000 0.000000 0.000000
vn -0.309017 0.000000 -0.951057
vn -0.141022 0.889785 -0.434046
vn -0.945024 0.000000 -0.327000
vn -0.309017 0.000000 -0.951057
vn -0.308985 0.014698 -0.950953
vn -0.141012 -0.889804 -0.434009
vn -0.141022 0.889785 -0.434046
vn 0.624651 -0.626583 -0.466053
vn -0.796571 -0.602194 -0.053266
vn -0.077013 -0.968448 -0.237016
vn -0.077013 -0.968449 -0.237016
vn -0.796571 -0.602194 -0.053266
vn -0.739684 0.619694 0.262385
vn -0.991631 0.000000 0.129104
vn -0.077013 -0.968448 -0.237016
vn -0.739684 0.619694 0.262385
vn 0.773458 0.606187 -0.185206
vn 0.041232 0.991059 0.126896
vn -0.991631 0.000000 0.129104
vn 0.773458 0.606187 -0.185206
vn 0.624651 -0.626583 -0.466053
vn -0.077013 -0.968449 -0.237016
vn 0.041232 0.991059 0.126896
vn -0.077013 -0.968449 -0.237016
vn -0.077013 -0.968448 -0.237016
vn -0.309015 0.000000 -0.951057
vn -0.309015 0.000000 -0.951057
vn -0.077013 -0.968448 -0.237016
vn -0.991631 0.000000 0.129104
vn -0.309015 0.000000 -0.951057
vn -0.309015 0.000000 -0.951057
vn -0.991631 0.000000 0.129104
vn 0.041232 0.991059 0.126896
vn -0.309015 0.000000 -0.951057
vn -0.309015 0.000000 -0.951057
vn 0.041232 0.991059 0.126896
vn -0.077013 -0.968449 -0.237016
vn -0.309015 0.000000 -0.951057
vn -0.309015 0.000000 -0.951057
vn -0.305068 0.003288 0.952325
vn 0.295539 0.876226 0.380637
vn 0.533995 -0.387079 0.751678
vn -0.856308 -0.221401 0.466602
vn 0.295539 0.876226 0.380637
vn 0.295539 0.876226 0.380637
vn 0.869891 0.336397 -0.360730
vn 0.533995 -0.387079 0.751678
vn 0.295539 0.876226 0.380637
vn -0.340639 -0.064634 -0.937970
vn -0.317599 0.696230 -0.643735
vn 0.869891 0.336397 -0.360730
vn -0.340639 -0.064634 -0.937970
vn -0.305068 0.003288 0.952325
vn -0.856308 -0.221401 0.466602
vn -0.317599 0.696230 -0.643735
vn -0.141012 -0.889804 -0.434009
vn -0.945024 0.000000 -0.327000
vn -0.739684 0.619694 0.262385
vn -0.796571 -0.602194 -0.053266
vn -0.945024 0.000000 -0.327000
vn -0.141022 0.889785 -0.434046
vn 0.773458 0.606187 -0.185206
vn -0.739684 0.619694 0.262385
vn -0.141022 0.889785 -0.434046
vn -0.141012 -0.889804 -0.434009
vn 0.624651 -0.626583 -0.466053
vn 0.773458 0.606187 -0.185206
vn -0.141012 -0.889804 -0.434009
vn -0.141012 -0.889804 -0.434009
vn -0.796571 -0.602194 -0.053266
vn 0.624651 -0.626583 -0.466053
s off
g Arbol_seco:pCylinder3
usemtl initialShadingGroup
f 1/1/1 2/2/2 7/3/3 6/4/4
f 2/2/5 3/5/6 8/6/7 7/3/8
f 3/5/9 4/7/10 9/8/11 8/6/12
f 4/7/13 5/9/14 10/10/15 9/8/16
f 5/9/17 1/11/18 6/12/19 10/10/20
f 26/13/21 27/14/22 28/15/23
f 34/16/24 35/17/25 36/18/26
f 35/17/27 37/19/28 36/20/29
f 20/21/30 21/22/31 18/23/32
f 29/24/33 26/25/34 28/15/35
f 6/4/36 7/3/37 12/26/38 11/27/39
f 7/3/40 8/6/41 13/28/42 12/26/43
f 8/6/44 9/8/45 14/29/46 13/28/47
f 9/8/48 10/10/49 15/30/50 14/29/51
f 10/10/52 6/12/53 11/31/54 15/30/55
f 11/27/56 12/26/57 46/32/58 47/33/59
f 12/26/60 13/28/61 45/34/62 46/32/63
f 13/28/64 14/29/65 44/35/66 45/34/67
f 14/29/68 15/30/69 43/36/70 44/35/71
f 15/30/72 11/31/73 47/37/74 43/36/75
f 16/38/76 17/39/77 23/40/78 22/41/79
f 17/39/80 18/42/81 24/43/82 23/40/83
f 21/22/84 16/44/85 22/45/86 25/46/87
f 18/42/88 21/22/89 25/46/90 24/43/91
f 22/41/92 23/40/93 27/14/94 26/13/95
f 23/40/96 24/43/97 28/15/98 27/14/99
f 25/46/100 22/45/101 26/25/102 29/24/103
f 24/43/104 25/46/105 29/24/106 28/15/107
f 63/47/108 60/48/109 31/49/110 30/50/111
f 62/51/112 63/47/113 30/50/114 32/52/115
f 60/48/116 61/53/117 33/54/118 31/49/119
f 61/53/120 62/55/121 32/56/122 33/54/123
f 30/50/124 31/49/125 35/17/126 34/16/127
f 32/52/128 30/50/129 34/16/130 36/18/131
f 31/49/132 33/54/133 37/19/134 35/17/135
f 33/54/136 32/56/137 36/20/138 37/19/139
f 39/57/140 38/58/141 21/22/142 20/21/143
f 40/59/144 39/57/145 20/21/146 19/60/147
f 41/61/148 40/59/149 19/60/150 17/39/151
f 42/62/152 41/61/153 17/39/154 16/38/155
f 38/58/156 42/63/157 16/44/158 21/22/159
f 44/35/160 43/36/161 38/58/162 39/57/163
f 45/34/164 44/35/165 39/57/166 40/59/167
f 46/32/168 45/34/169 40/59/170 41/61/171
f 57/64/172 56/65/173 58/66/174 59/67/175
f 43/36/176 47/37/177 42/63/178 38/58/179
f 47/68/180 46/69/181 48/70/182 49/71/183
f 46/69/184 41/72/185 50/73/186 48/70/187
f 41/72/188 42/74/189 51/75/190 50/73/191
f 42/74/192 47/76/193 49/77/194 51/75/195
f 67/78/196 64/79/197 52/80/198 53/81/199
f 64/79/200 65/82/201 54/83/202 52/80/203
f 65/82/204 66/84/205 55/85/206 54/83/207
f 66/84/208 67/86/209 53/87/210 55/85/211
f 53/81/212 52/80/213 56/65/214 57/64/215
f 52/80/216 54/83/217 58/66/218 56/65/219
f 54/83/220 55/85/221 59/67/222 58/66/223
f 55/85/224 53/87/225 57/64/226 59/67/227
f 19/88/228 20/89/229 61/53/230 60/48/231
f 20/89/232 18/90/233 62/55/234 61/53/235
f 18/91/236 17/92/237 63/47/238 62/51/239
f 17/92/240 19/88/241 60/48/242 63/47/243
f 48/70/244 50/73/245 65/82/246 64/79/247
f 50/73/248 51/75/249 66/84/250 65/82/251
f 51/75/252 49/77/253 67/86/254 66/84/255
f 49/71/256 48/70/257 64/79/258 67/78/259
